<svg width="16" height="16" viewBox="0 0 16 16" fill="none" xmlns="http://www.w3.org/2000/svg">
<path d="M10.5 0.519531L1.96484 9.05469L1.92578 9.23047L0.65625 14.6016L0.421875 15.5781L1.39844 15.3438L6.76953 14.0742L6.94531 14.0352L15.4805 5.5L14.6016 4.62109L7.10156 12.1016C6.83301 11.5718 6.30811 10.9932 5.44141 10.5586C5.05566 9.70166 4.46973 9.13525 3.91797 8.87891L11.3789 1.39844L10.5 0.519531ZM3.05859 9.91406C3.14404 9.93604 3.24658 9.96777 3.35156 10.0117C3.73242 10.1753 4.16699 10.4756 4.42578 11.2227L4.50391 11.4766L4.75781 11.5938C5.57812 11.9551 5.8833 12.3848 6.02734 12.7266C6.06152 12.8047 6.08838 12.8804 6.10547 12.9414L3.625 13.5273L2.47266 12.375L3.05859 9.91406Z" fill="#7820A0"/>
</svg>
