<svg width="16" height="16" viewBox="0 0 16 16" fill="none" xmlns="http://www.w3.org/2000/svg">
<path d="M3 1.5V14.5H13V1.5H3ZM4 2.5H12V13.5H4V2.5ZM7.70312 5.17188C7.55078 5.16992 7.37305 5.22461 7.25 5.32812C7.12305 5.43555 7.06641 5.56836 7.03125 5.70312C6.96289 5.97266 6.98242 6.25195 7.04688 6.5625C7.12305 6.92578 7.33984 7.36328 7.51562 7.78125C7.42578 8.16211 7.40234 8.5 7.26562 8.89062C7.14844 9.22656 6.99805 9.41992 6.85938 9.71875C6.54492 9.83789 6.16992 9.9082 5.92188 10.0625C5.6543 10.2285 5.41992 10.4121 5.28125 10.6719C5.14258 10.9316 5.1582 11.2988 5.34375 11.5625C5.43555 11.7012 5.55664 11.8105 5.71875 11.875C5.88086 11.9395 6.05664 11.9414 6.20312 11.8906C6.49805 11.7891 6.70703 11.5625 6.90625 11.2969C7.0918 11.0508 7.22266 10.6328 7.39062 10.2969C7.64258 10.2129 7.82422 10.1074 8.09375 10.0469C8.375 9.98438 8.56445 10.0137 8.82812 9.98438C8.94141 10.1133 9.03711 10.3203 9.15625 10.4219C9.39453 10.6289 9.65625 10.793 9.96875 10.8125C10.2812 10.832 10.5938 10.6367 10.7656 10.3438H10.7812V10.3281C10.8574 10.1953 10.9102 10.0508 10.9062 9.89062C10.9023 9.73047 10.8223 9.5625 10.7188 9.45312C10.5137 9.23438 10.252 9.17773 9.96875 9.14062C9.75 9.11133 9.44531 9.18945 9.1875 9.20312C8.96094 8.9043 8.73633 8.67969 8.53125 8.29688C8.41992 8.08984 8.39062 7.91406 8.29688 7.70312C8.36914 7.36328 8.51172 6.98438 8.53125 6.6875C8.55469 6.32812 8.54102 6.01758 8.4375 5.73438C8.38477 5.5918 8.30078 5.45117 8.17188 5.34375C8.04688 5.24023 7.88477 5.17578 7.71875 5.17188C7.71289 5.17188 7.70898 5.17188 7.70312 5.17188ZM8.03125 8.875C8.12109 9.0332 8.23242 9.13281 8.32812 9.28125C8.1875 9.30664 8.08008 9.28125 7.9375 9.3125C7.91406 9.31836 7.89844 9.33789 7.875 9.34375C7.9043 9.26562 7.94141 9.21875 7.96875 9.14062C8 9.04883 8.00195 8.9668 8.03125 8.875ZM9.875 9.89062C10.043 9.91211 10.1035 9.94336 10.125 9.95312C10.1211 9.96094 10.1309 9.95898 10.125 9.96875C10.0625 10.0723 10.0566 10.0645 10.0156 10.0625C9.98242 10.0605 9.85547 9.99219 9.73438 9.90625C9.76953 9.9082 9.84375 9.88672 9.875 9.89062ZM6.375 10.6719C6.34766 10.7129 6.32422 10.8086 6.29688 10.8438C6.14453 11.0469 6.00391 11.1406 5.96875 11.1562C5.96289 11.1484 5.97852 11.1562 5.96875 11.1406H5.95312C5.90234 11.0684 5.91602 11.0977 5.95312 11.0312C5.99023 10.9648 6.10742 10.8301 6.3125 10.7031C6.32812 10.6934 6.35938 10.6816 6.375 10.6719Z" fill="#F2962A"/>
</svg>
