<svg width="136" height="39" viewBox="0 0 136 39" fill="none" xmlns="http://www.w3.org/2000/svg">
<g clip-path="url(#clip0)">
<path d="M17.8522 20.5101C17.8522 23.7462 15.2474 26.3355 11.9919 26.3355C8.73642 26.3355 6.1316 23.7462 6.1316 20.5101C6.1316 17.2739 8.73642 14.6846 11.9919 14.6846C15.2474 14.6846 17.8522 17.2739 17.8522 20.5101Z" fill="#E8E4EA"/>
<path d="M23.7105 34.8146C23.7105 34.8146 20.455 28.2781 11.9898 28.2781C3.52469 28.2781 0.271275 34.8146 0.271275 34.8146V38.6333H23.7105V34.8146Z" fill="#C8C8C8"/>
</g>
<path d="M32.2029 16.2134C32.2029 20.9034 28.4004 24.7059 23.7105 24.7059C19.0205 24.7059 15.218 20.9034 15.218 16.2134C15.218 11.5234 19.0205 7.72095 23.7105 7.72095C28.4004 7.72095 32.2029 11.5234 32.2029 16.2134Z" fill="#1FC97F"/>
<path d="M28.2055 12.2163L22.4434 17.9852L20.0647 15.6133L18.8638 16.8141L22.4451 20.3869L29.4068 13.4171L28.2055 12.2163Z" fill="white"/>
<circle cx="36.1944" cy="25.6399" r="2.29297" fill="#7820A0"/>
<circle cx="46.3854" cy="25.6399" r="2.29297" fill="#7820A0"/>
<circle cx="56.5763" cy="25.6399" r="2.29297" fill="#7820A0"/>
<circle cx="66.7673" cy="25.6399" r="2.29297" fill="#7820A0"/>
<g clip-path="url(#clip1)">
<path d="M108.545 36.1514C108.545 36.1514 120.931 35.5935 121.486 35.7587C122.037 35.9239 122.483 34.1435 122.537 30.693C122.592 27.2424 122.537 25.8732 122.537 25.8732L119.924 19.6769C119.924 19.6769 118.938 17.2542 118.047 17.2285C117.157 17.2028 115.572 17.1734 112.751 17.2285C109.929 17.2836 108.064 16.9495 108.096 21.3471C108.133 25.6346 108.545 36.1514 108.545 36.1514Z" fill="#C8C8C8"/>
<path d="M108.575 12.6621H87.0448V34.3125H108.575V12.6621Z" fill="#1FC97F"/>
<path d="M117.398 18.6196C117.398 18.6196 112.473 18.4104 111.645 18.7444C110.812 19.0785 110.801 22.7566 110.914 24.537C111.024 26.3173 111.039 26.0383 111.039 26.0383C111.039 26.0383 120.42 25.8181 120.416 25.796C120.121 24.4966 117.398 18.6196 117.398 18.6196Z" fill="#FFFAF5"/>
<path d="M108.545 34.2241H86.5666V36.0889H108.545V34.2241Z" fill="#C8C8C8"/>
<path d="M79.2512 12.137L85.789 12.9372V15.125H79.2512V12.137Z" fill="#C8C8C8"/>
<path d="M79.2512 18.6345L85.789 19.343V21.6225H79.2512V18.6345Z" fill="#C8C8C8"/>
<path d="M79.2512 25.1353H85.789V27.1028L79.2512 28.1196V25.1353Z" fill="#C8C8C8"/>
<path d="M118.23 36.2286C118.23 37.8401 116.93 39.1432 115.331 39.1432C113.729 39.1432 112.433 37.8401 112.433 36.2286C112.433 34.6208 113.729 33.314 115.331 33.314C116.93 33.314 118.23 34.6208 118.23 36.2286Z" fill="#7820A0"/>
<path d="M94.6448 36.2286C94.6448 37.8401 93.3453 39.1432 91.7464 39.1432C90.1439 39.1432 88.848 37.8401 88.848 36.2286C88.848 34.6208 90.1439 33.314 91.7464 33.314C93.3453 33.314 94.6448 34.6208 94.6448 36.2286Z" fill="#7820A0"/>
</g>
<path d="M124.091 0.41748L126.387 2.98L129.696 1.94612L130.443 5.27602L133.773 6.02251L132.754 9.33151L135.302 11.6275L132.754 13.9236L133.773 17.2326L130.443 17.9791L129.696 21.309L126.387 20.2751L124.091 22.8376L121.795 20.2751L118.486 21.309L117.74 17.9791L114.41 17.2326L115.429 13.9236L112.881 11.6275L115.429 9.33151L114.41 6.02251L117.74 5.27602L118.486 1.94612L121.795 2.98L124.091 0.41748Z" fill="#E11C34"/>
<path d="M120.779 11.7286H119.708V13.1559H118.996V9.69043H120.933V10.3014H119.709V11.2191H120.779V11.7286ZM122.615 11.882H122.257V13.1559H121.544V9.69043H122.664C123.275 9.69043 123.785 9.99718 123.785 10.7615C123.785 11.4738 123.379 11.6792 123.275 11.7286L123.889 13.1559H123.124L122.615 11.882ZM122.256 11.271H122.664C123.072 11.271 123.072 10.9149 123.072 10.7615C123.072 10.6601 123.072 10.252 122.664 10.252H122.256V11.271ZM126.332 11.6272H125.212V12.5449H126.486V13.1559H124.5V9.69043H126.486V10.3014H125.212V11.1177H126.332V11.6272ZM128.984 11.6272H127.862V12.5449H129.187V13.1559H127.201V9.69043H129.187V10.3014H127.913V11.1177H129.034V11.6272H128.984Z" fill="white"/>
<defs>
<clipPath id="clip0">
<rect width="23.4392" height="23.9488" fill="white" transform="translate(0.271276 14.6846)"/>
</clipPath>
<clipPath id="clip1">
<rect width="43.3116" height="27.006" fill="white" transform="translate(79.2512 12.137)"/>
</clipPath>
</defs>
</svg>
