<svg width="16" height="17" viewBox="0 0 16 17" fill="none" xmlns="http://www.w3.org/2000/svg">
<path d="M10 2.51562L3.17188 9.34375L3.14062 9.48438L2.125 13.7812L1.9375 14.5625L2.71875 14.375L7.01562 13.3594L7.15625 13.3281L13.9844 6.5L13.2812 5.79688L7.28125 11.7812C7.06641 11.3574 6.64648 10.8945 5.95312 10.5469C5.64453 9.86133 5.17578 9.4082 4.73438 9.20312L10.7031 3.21875L10 2.51562ZM4.04688 10.0312C4.11523 10.0488 4.19727 10.0742 4.28125 10.1094C4.58594 10.2402 4.93359 10.4805 5.14062 11.0781L5.20312 11.2812L5.40625 11.375C6.0625 11.6641 6.30664 12.0078 6.42188 12.2812C6.44922 12.3438 6.4707 12.4043 6.48438 12.4531L4.5 12.9219L3.57812 12L4.04688 10.0312Z" fill="#463D4A"/>
</svg>
