<svg width="13" height="16" viewBox="0 0 13 16" fill="none" xmlns="http://www.w3.org/2000/svg">
<path d="M5.375 0.5C5.04785 0.5 4.71338 0.614746 4.47656 0.851562C4.23975 1.08838 4.125 1.42285 4.125 1.75V2.375H0.375V3.625H1V13.625C1 14.6528 1.84717 15.5 2.875 15.5H10.375C11.4028 15.5 12.25 14.6528 12.25 13.625V3.625H12.875V2.375H9.125V1.75C9.125 1.42285 9.01025 1.08838 8.77344 0.851562C8.53662 0.614746 8.20215 0.5 7.875 0.5H5.375ZM5.375 1.75H7.875V2.375H5.375V1.75ZM2.25 3.625H11V13.625C11 13.9717 10.7217 14.25 10.375 14.25H2.875C2.52832 14.25 2.25 13.9717 2.25 13.625V3.625ZM3.5 5.5V12.375H4.75V5.5H3.5ZM6 5.5V12.375H7.25V5.5H6ZM8.5 5.5V12.375H9.75V5.5H8.5Z" fill="#E11C34"/>
</svg>
