<svg width="20" height="21" viewBox="0 0 20 21" fill="none" xmlns="http://www.w3.org/2000/svg">
<path fill-rule="evenodd" clip-rule="evenodd" d="M15.8 7.7H4.2V10.5C4.2 12.5987 5.90132 14.3 8 14.3H12C14.0987 14.3 15.8 12.5987 15.8 10.5V7.7ZM3 6.5V10.5C3 13.2614 5.23858 15.5 8 15.5H12C14.7614 15.5 17 13.2614 17 10.5V6.5H3Z" fill="#463D4A"/>
<path fill-rule="evenodd" clip-rule="evenodd" d="M11.6786 2.30115L14.7473 3.06833L13.4526 7.59997H9.02917L11.6786 2.30115ZM12.3214 3.69878L10.9708 6.39997H12.5474L13.2527 3.9316L12.3214 3.69878Z" fill="#463D4A"/>
<path fill-rule="evenodd" clip-rule="evenodd" d="M12.8 15.7H7.2V16.3H12.8V15.7ZM6 14.5V17.5H14V14.5H6Z" fill="#463D4A"/>
</svg>
