<svg width="22" height="22" viewBox="0 0 22 22" fill="none" xmlns="http://www.w3.org/2000/svg">
<path d="M11 2.0625C10.24 2.0625 9.625 2.67749 9.625 3.4375C9.625 3.49658 9.63843 3.55298 9.64648 3.60938C7.26978 4.21631 5.5 6.37549 5.5 8.9375V15.125C5.5 15.5144 5.2019 15.8125 4.8125 15.8125H4.125V17.1875H9.06641C8.98853 17.405 8.9375 17.6333 8.9375 17.875C8.9375 19.0056 9.86938 19.9375 11 19.9375C12.1306 19.9375 13.0625 19.0056 13.0625 17.875C13.0625 17.6333 13.0115 17.405 12.9336 17.1875H17.875V15.8125H17.1875C16.7981 15.8125 16.5 15.5144 16.5 15.125V9.13086C16.5 6.54736 14.7732 4.24316 12.3535 3.60938C12.3616 3.55298 12.375 3.49658 12.375 3.4375C12.375 2.67749 11.76 2.0625 11 2.0625ZM10.6992 4.8125C10.7986 4.80444 10.8979 4.8125 11 4.8125C11.043 4.8125 11.0859 4.8125 11.1289 4.8125C13.374 4.87964 15.125 6.84815 15.125 9.13086V15.125C15.125 15.3667 15.176 15.595 15.2539 15.8125H6.74609C6.82397 15.595 6.875 15.3667 6.875 15.125V8.9375C6.875 6.75415 8.55615 4.96826 10.6992 4.8125ZM11 17.1875C11.3867 17.1875 11.6875 17.4883 11.6875 17.875C11.6875 18.2617 11.3867 18.5625 11 18.5625C10.6133 18.5625 10.3125 18.2617 10.3125 17.875C10.3125 17.4883 10.6133 17.1875 11 17.1875Z" fill="#463D4A"/>
</svg>
