<svg width="20" height="20" viewBox="0 0 20 20" fill="none" xmlns="http://www.w3.org/2000/svg">
<path d="M8.24219 1.875L8.14453 2.38281L7.77344 4.23828C7.17773 4.47266 6.64062 4.80225 6.15234 5.19531L4.33594 4.57031L3.84766 4.41406L3.59375 4.86328L2.34375 7.01172L2.08984 7.46094L2.46094 7.79297L3.86719 9.02344C3.81592 9.34326 3.75 9.66309 3.75 10C3.75 10.3369 3.81592 10.6567 3.86719 10.9766L2.46094 12.207L2.08984 12.5391L2.34375 12.9883L3.59375 15.1367L3.84766 15.5859L4.33594 15.4297L6.15234 14.8047C6.64062 15.1978 7.17773 15.5273 7.77344 15.7617L8.14453 17.6172L8.24219 18.125H11.7578L11.8555 17.6172L12.2266 15.7617C12.8223 15.5273 13.3594 15.1978 13.8477 14.8047L15.6641 15.4297L16.1523 15.5859L16.4062 15.1367L17.6562 12.9883L17.9102 12.5391L17.5391 12.207L16.1328 10.9766C16.1841 10.6567 16.25 10.3369 16.25 10C16.25 9.66309 16.1841 9.34326 16.1328 9.02344L17.5391 7.79297L17.9102 7.46094L17.6562 7.01172L16.4062 4.86328L16.1523 4.41406L15.6641 4.57031L13.8477 5.19531C13.3594 4.80225 12.8223 4.47266 12.2266 4.23828L11.8555 2.38281L11.7578 1.875H8.24219ZM9.25781 3.125H10.7422L11.0547 4.74609L11.1328 5.11719L11.4844 5.23438C12.1948 5.45654 12.8394 5.83252 13.3789 6.32812L13.6523 6.58203L14.0039 6.46484L15.5859 5.91797L16.3281 7.1875L15.0781 8.30078L14.7852 8.53516L14.8828 8.90625C14.9634 9.2627 15 9.62646 15 10C15 10.3735 14.9634 10.7373 14.8828 11.0938L14.8047 11.4648L15.0781 11.6992L16.3281 12.8125L15.5859 14.082L14.0039 13.5352L13.6523 13.418L13.3789 13.6719C12.8394 14.1675 12.1948 14.5435 11.4844 14.7656L11.1328 14.8828L11.0547 15.2539L10.7422 16.875H9.25781L8.94531 15.2539L8.86719 14.8828L8.51562 14.7656C7.80518 14.5435 7.16064 14.1675 6.62109 13.6719L6.34766 13.418L5.99609 13.5352L4.41406 14.082L3.67188 12.8125L4.92188 11.6992L5.21484 11.4648L5.11719 11.0938C5.03662 10.7373 5 10.3735 5 10C5 9.62646 5.03662 9.2627 5.11719 8.90625L5.21484 8.53516L4.92188 8.30078L3.67188 7.1875L4.41406 5.91797L5.99609 6.46484L6.34766 6.58203L6.62109 6.32812C7.16064 5.83252 7.80518 5.45654 8.51562 5.23438L8.86719 5.11719L8.94531 4.74609L9.25781 3.125ZM10 6.875C8.28125 6.875 6.875 8.28125 6.875 10C6.875 11.7188 8.28125 13.125 10 13.125C11.7188 13.125 13.125 11.7188 13.125 10C13.125 8.28125 11.7188 6.875 10 6.875ZM10 8.125C11.0425 8.125 11.875 8.95752 11.875 10C11.875 11.0425 11.0425 11.875 10 11.875C8.95752 11.875 8.125 11.0425 8.125 10C8.125 8.95752 8.95752 8.125 10 8.125Z" fill="#463D4A"/>
</svg>
