<svg width="20" height="21" viewBox="0 0 20 21" fill="none" xmlns="http://www.w3.org/2000/svg">
<path d="M7.1875 4.25C5.98633 4.25 5 5.23633 5 6.4375C5 7.63867 5.98633 8.625 7.1875 8.625C8.38867 8.625 9.375 7.63867 9.375 6.4375C9.375 5.23633 8.38867 4.25 7.1875 4.25ZM12.8125 4.25C11.6113 4.25 10.625 5.23633 10.625 6.4375C10.625 7.63867 11.6113 8.625 12.8125 8.625C14.0137 8.625 15 7.63867 15 6.4375C15 5.23633 14.0137 4.25 12.8125 4.25ZM7.1875 5.5C7.7124 5.5 8.125 5.9126 8.125 6.4375C8.125 6.9624 7.7124 7.375 7.1875 7.375C6.6626 7.375 6.25 6.9624 6.25 6.4375C6.25 5.9126 6.6626 5.5 7.1875 5.5ZM12.8125 5.5C13.3374 5.5 13.75 5.9126 13.75 6.4375C13.75 6.9624 13.3374 7.375 12.8125 7.375C12.2876 7.375 11.875 6.9624 11.875 6.4375C11.875 5.9126 12.2876 5.5 12.8125 5.5ZM4.375 8C3.00049 8 1.875 9.12549 1.875 10.5C1.875 11.1958 2.17285 11.8232 2.63672 12.2773C1.8042 12.8413 1.25 13.8008 1.25 14.875H2.5C2.5 13.8325 3.33252 13 4.375 13C5.41748 13 6.25 13.8325 6.25 14.875H7.5C7.5 13.8008 6.9458 12.8413 6.11328 12.2773C6.57715 11.8232 6.875 11.1958 6.875 10.5C6.875 9.12549 5.74951 8 4.375 8ZM7.5 14.875C7.10938 15.3975 6.875 16.0542 6.875 16.75H8.125C8.125 15.7075 8.95752 14.875 10 14.875C11.0425 14.875 11.875 15.7075 11.875 16.75H13.125C13.125 16.0542 12.8906 15.3975 12.5 14.875C12.2876 14.5918 12.0312 14.3501 11.7383 14.1523C12.2021 13.6982 12.5 13.0708 12.5 12.375C12.5 11.0005 11.3745 9.875 10 9.875C8.62549 9.875 7.5 11.0005 7.5 12.375C7.5 13.0708 7.79785 13.6982 8.26172 14.1523C7.96875 14.3501 7.7124 14.5918 7.5 14.875ZM12.5 14.875H13.75C13.75 13.8325 14.5825 13 15.625 13C16.6675 13 17.5 13.8325 17.5 14.875H18.75C18.75 13.8008 18.1958 12.8413 17.3633 12.2773C17.8271 11.8232 18.125 11.1958 18.125 10.5C18.125 9.12549 16.9995 8 15.625 8C14.2505 8 13.125 9.12549 13.125 10.5C13.125 11.1958 13.4229 11.8232 13.8867 12.2773C13.0542 12.8413 12.5 13.8008 12.5 14.875ZM4.375 9.25C5.07324 9.25 5.625 9.80176 5.625 10.5C5.625 11.1982 5.07324 11.75 4.375 11.75C3.67676 11.75 3.125 11.1982 3.125 10.5C3.125 9.80176 3.67676 9.25 4.375 9.25ZM15.625 9.25C16.3232 9.25 16.875 9.80176 16.875 10.5C16.875 11.1982 16.3232 11.75 15.625 11.75C14.9268 11.75 14.375 11.1982 14.375 10.5C14.375 9.80176 14.9268 9.25 15.625 9.25ZM10 11.125C10.6982 11.125 11.25 11.6768 11.25 12.375C11.25 13.0732 10.6982 13.625 10 13.625C9.30176 13.625 8.75 13.0732 8.75 12.375C8.75 11.6768 9.30176 11.125 10 11.125Z" fill="#463D4A"/>
</svg>
