<svg width="20" height="21" viewBox="0 0 20 21" fill="none" xmlns="http://www.w3.org/2000/svg">
<path d="M4.19843 2.27271C3.52682 2.27271 2.96918 2.83034 2.96918 3.50195V5.0144C2.76298 5.12852 2.57346 5.27414 2.42108 5.46118C2.06679 5.89568 1.9254 6.46783 2.03778 7.01758V7.0188C2.36979 8.63398 2.83133 10.8802 2.86054 11.0227C2.83137 11.1649 2.37165 13.4015 2.04023 15.0168C1.92692 15.5693 2.06941 16.1439 2.42475 16.5806V16.5818C2.78102 17.0185 3.31569 17.2727 3.87982 17.2727H15.7829C16.3529 17.2727 16.8934 17.0157 17.2538 16.5745V16.5732C17.6138 16.1315 17.7577 15.5507 17.6433 14.9924C17.3119 13.378 16.8569 11.1643 16.8278 11.0227C16.857 10.8802 17.3191 8.6306 17.6506 7.01514C17.7631 6.46679 17.6226 5.89449 17.2685 5.45996L17.2673 5.45874C17.1148 5.27184 16.9255 5.12692 16.7192 5.01318V3.50195C16.7192 2.83034 16.1615 2.27271 15.4899 2.27271H4.19843ZM4.21918 3.52271H15.4692V4.77271H4.21918V3.52271ZM3.87006 6.02271H15.4692V6.02515H15.8317C16.0135 6.02853 16.1849 6.10929 16.2993 6.24976C16.4169 6.39382 16.4636 6.58131 16.4262 6.76367C16.0843 8.43004 15.5778 10.897 15.5778 10.897L15.5522 11.0227L15.5778 11.1484C15.5778 11.1484 16.0758 13.5782 16.4177 15.2439C16.4564 15.4348 16.4088 15.632 16.2858 15.7834C16.1613 15.9359 15.9791 16.0227 15.7829 16.0227H3.87982C3.69021 16.0227 3.51396 15.9378 3.39399 15.7908C3.2749 15.6438 3.22672 15.4529 3.26459 15.2683C3.60648 13.602 4.11054 11.1484 4.11054 11.1484L4.13617 11.0227L4.11054 10.897C4.11054 10.897 3.60472 8.43392 3.26215 6.76733H3.26337C3.22583 6.5837 3.27142 6.39512 3.3891 6.25098H3.39032C3.50799 6.10655 3.68374 6.02271 3.87006 6.02271ZM8.15351 7.89771C7.37226 7.89771 6.6628 8.11123 6.3078 8.32373L6.59223 9.31738C6.87598 9.17551 7.37343 8.96216 7.8703 8.96216C8.43843 8.96216 8.72235 9.24681 8.72235 9.60181C8.72235 10.0987 8.15356 10.3123 7.65668 10.3123H7.08905V11.3059H7.6579C8.29728 11.3059 8.86518 11.5911 8.86518 12.1592C8.86518 12.5854 8.5095 12.9404 7.7995 12.9404C7.23138 12.9404 6.66298 12.7271 6.3786 12.5852L6.09296 13.7217C6.44796 13.9348 7.08783 14.1477 7.86908 14.1477C9.43158 14.1477 10.3544 13.3664 10.3544 12.3008C10.3544 11.4489 9.78636 10.951 9.07636 10.8091C9.78698 10.5247 10.142 10.0288 10.142 9.3894C10.142 8.53753 9.43163 7.89771 8.15351 7.89771ZM11.7192 7.89771V14.1477H12.9692V7.89771H11.7192Z" fill="#463D4A"/>
</svg>
