<svg width="20" height="21" viewBox="0 0 20 21" fill="none" xmlns="http://www.w3.org/2000/svg">
<g clip-path="url(#clip0)">
<path d="M8.12996 8.6327L8.91996 7.8427L8.20996 7.1427L6.20996 9.1427L8.20996 11.1427L8.91996 10.4327L8.11996 9.6327L10.5 9.6427V8.6427L8.12996 8.6327Z" fill="#463D4A"/>
<path d="M4 5.7627C2.62 5.7627 1.5 6.8827 1.5 8.2627V14.2627C1.5 15.6427 2.62 16.7627 4 16.7627C5.38 16.7627 6.5 15.6427 6.5 14.2627V11.7627V10.5627V8.2627C6.5 6.8827 5.38 5.7627 4 5.7627ZM5.3 14.2627C5.3 14.9827 4.72 15.5627 4 15.5627C3.28 15.5627 2.7 14.9827 2.7 14.2627V11.7627H5.3V14.2627ZM2.7 10.5627V8.2627C2.7 7.5427 3.28 6.9627 4 6.9627C4.72 6.9627 5.3 7.5427 5.3 8.2627V10.5627H2.7Z" fill="#463D4A"/>
<path d="M8.31995 14.2727L7.52995 15.0627L8.23995 15.7727L10.24 13.7727L8.23995 11.7727L7.52995 12.4727L8.33995 13.2727H6.44995V14.2727H8.31995Z" fill="#463D4A"/>
<path d="M17.27 7.65271L18.18 5.73271L15.61 4.27271L13.85 7.65271H9.64001V10.5527C9.64001 12.3127 10.66 13.8227 12.12 14.5727V16.6227H16.31V14.5327C17.73 13.7627 18.71 12.2827 18.71 10.5527V7.65271H17.27ZM16.1 5.93271L16.63 6.23271L15.95 7.66271H15.2L16.1 5.93271ZM15.11 15.0927V15.4327H13.32V15.0927H15.11ZM17.51 10.5627C17.51 12.4027 16.01 13.8927 14.18 13.8927C12.35 13.8927 10.84 12.3927 10.84 10.5627V8.86271H13.23H16.71H17.51V10.5627Z" fill="#463D4A"/>
</g>
<defs>
<clipPath id="clip0">
<rect width="17.21" height="12.49" fill="white" transform="translate(1.5 4.27271)"/>
</clipPath>
</defs>
</svg>
