<svg width="20" height="20" viewBox="0 0 20 20" fill="none" xmlns="http://www.w3.org/2000/svg">
<path fill-rule="evenodd" clip-rule="evenodd" d="M6.33761 7.21324C6.21036 7.27494 6.08464 7.34053 5.96094 7.41016C5.3335 7.76416 4.75977 8.25244 4.32031 8.85547C4.20801 8.64062 4.125 8.35498 4.125 7.97656C4.125 7.44434 4.73047 6.84375 4.73047 6.84375L3.92969 5.88672C3.92969 5.88672 2.875 6.68994 2.875 7.97656C2.875 8.9751 3.34131 9.67822 3.69531 10.0664C3.56836 10.4668 3.5 10.9062 3.5 11.375C3.5 12.8911 3.84912 13.958 4.16406 14.8711C4.17627 14.9065 4.18841 14.9416 4.20047 14.9765C4.4996 15.8421 4.75 16.5666 4.75 17.625H6C6 16.377 5.6816 15.4584 5.38424 14.6005C5.36806 14.5538 5.35194 14.5073 5.33594 14.4609C5.02588 13.5625 4.75 12.7104 4.75 11.375C4.75 9.97363 5.50195 9.11426 6.58594 8.50391C6.713 8.43236 6.84461 8.36552 6.97959 8.30325C6.71735 7.97436 6.50023 7.6079 6.33761 7.21324ZM13.7922 8.56785C13.9426 8.65189 14.0796 8.73568 14.2031 8.81641C14.1557 8.88264 14.1092 8.95087 14.0626 9.01929C14.0061 9.10219 13.9495 9.18537 13.8906 9.26562L14.9062 10.0078C14.9892 9.89432 15.068 9.78441 15.1437 9.67892C15.4373 9.2693 15.6832 8.92637 15.9414 8.69922C16.2661 8.41357 16.5859 8.25 17.25 8.25V7C16.3394 7 15.6338 7.3125 15.1211 7.76172C15.0981 7.782 15.0774 7.80377 15.0564 7.8258C15.0395 7.84356 15.0224 7.86147 15.0039 7.87891C14.8533 7.77752 14.6852 7.67113 14.4999 7.56377C14.3101 7.93082 14.0713 8.2684 13.7922 8.56785ZM15.5898 10.5156L16.3516 9.51953C17.167 10.1494 17.4966 10.8794 17.6992 11.375C17.7993 11.624 17.8921 11.8047 17.9531 11.9023C18.0142 12 18.0264 12.0073 18.1094 12.0391L18.6758 12.2539L18.4609 12.8398L17.9336 14.3438L17.8945 14.4609L17.7969 14.5586C17.7969 14.5586 16.498 15.8989 14.5352 16.2383C14.6426 16.6313 14.75 17.1294 14.75 17.625H13.5C13.5 17.0195 13.1484 15.9648 13.1484 15.9648L12.8164 15.125H13.7344C15.4556 15.125 16.6934 13.8677 16.8008 13.7578L17.1523 12.8008C17.1165 12.7628 17.0711 12.7308 17.0265 12.6993C16.9679 12.658 16.9108 12.6177 16.8789 12.5664C16.7516 12.3596 16.6729 12.1608 16.598 11.9715C16.5809 11.9284 16.5641 11.8858 16.5469 11.8438C16.3613 11.3896 16.1904 10.9795 15.5898 10.5156ZM14.75 12.3125C14.75 12.1392 14.8892 12 15.0625 12C15.2358 12 15.375 12.1392 15.375 12.3125C15.375 12.4858 15.2358 12.625 15.0625 12.625C14.8892 12.625 14.75 12.4858 14.75 12.3125ZM6.625 15.418V14.2266L7.46484 14.5391C8.50244 14.9199 9.04932 15.1152 9.75 15.125C10.4824 15.1372 11.1172 15.125 11.1172 15.125H11.4297L11.6055 15.3594C11.6055 15.3594 11.8057 15.606 11.957 15.9844C12.1084 16.3628 12.25 16.9097 12.25 17.625H11C11 17.0732 10.9023 16.6948 10.8047 16.4531C10.7896 16.4154 10.7857 16.4094 10.7803 16.4011C10.777 16.3959 10.7731 16.3899 10.7656 16.375C10.7376 16.3753 10.7093 16.3756 10.6803 16.376C10.4769 16.3785 10.235 16.3814 9.75 16.375C9.35951 16.3695 8.97177 16.2429 8.59609 16.1201C8.47148 16.0794 8.34819 16.0392 8.22656 16.0039C8.23046 16.0168 8.23437 16.0298 8.23829 16.0427C8.36665 16.4676 8.5 16.9089 8.5 17.6055H7.25C7.25 16.8218 7.10352 16.3018 6.97656 15.9844C6.84961 15.667 6.78125 15.5938 6.78125 15.5938L6.625 15.418Z" fill="#463D4A"/>
<path d="M10.5 2C8.57293 2 7 3.57293 7 5.5C7 7.42707 8.57293 9 10.5 9C12.4271 9 14 7.42707 14 5.5C14 3.57293 12.4271 2 10.5 2ZM10.5 3C11.8866 3 13 4.11337 13 5.5C13 6.88663 11.8866 8 10.5 8C9.11337 8 8 6.88663 8 5.5C8 4.11337 9.11337 3 10.5 3Z" fill="#463D4A"/>
<path d="M10.369 7.05705H10.6387L10.6399 6.7657C11.1858 6.72626 11.4987 6.426 11.5 5.99979C11.4987 5.54814 11.126 5.34203 10.7341 5.24916L10.6501 5.22753L10.6552 4.50107C10.8588 4.53669 10.9898 4.65883 11.0102 4.84203H11.4644C11.4567 4.43745 11.1387 4.14229 10.6578 4.09649L10.659 3.80005H10.3893L10.388 4.09649C9.91094 4.14483 9.56743 4.43745 9.5687 4.85857C9.5687 5.23262 9.83461 5.44763 10.2634 5.55832L10.3779 5.58758L10.3728 6.3573C10.145 6.32168 9.98092 6.19191 9.96438 5.96163H9.5C9.51781 6.43873 9.84606 6.72244 10.3702 6.7657L10.369 7.05705ZM10.6425 6.3573L10.6476 5.65883C10.8791 5.72626 11.0267 5.81532 11.028 5.99598C11.0267 6.18427 10.8753 6.31913 10.6425 6.3573ZM10.3804 5.15883C10.2048 5.10285 10.0445 5.00997 10.0471 4.82931C10.0483 4.66519 10.1718 4.53796 10.3855 4.50107L10.3804 5.15883Z" fill="#463D4A"/>
</svg>
