<svg width="20" height="21" viewBox="0 0 20 21" fill="none" xmlns="http://www.w3.org/2000/svg">
<path d="M10 2.2063L4.43359 7.77271H1.25V11.5227H2.03125L3.76953 17.3235L3.90625 17.7727H16.0938L16.2305 17.3235L17.9688 11.5227H18.75V7.77271H15.5664L10 2.2063ZM10 3.98364L13.7891 7.77271H6.21094L10 3.98364ZM2.5 9.02271H17.5V10.2727H17.0312L16.8945 10.7219L15.1562 16.5227H4.84375L3.10547 10.7219L2.96875 10.2727H2.5V9.02271ZM6.875 10.8977V15.2727H8.125V10.8977H6.875ZM9.375 10.8977V15.2727H10.625V10.8977H9.375ZM11.875 10.8977V15.2727H13.125V10.8977H11.875Z" fill="#463D4A"/>
</svg>
