<svg width="15" height="16" viewBox="0 0 15 16" fill="none" xmlns="http://www.w3.org/2000/svg">
<mask id="path-1-inside-1" fill="white">
<path fill-rule="evenodd" clip-rule="evenodd" d="M13.5106 15.4246L0.0755936 1.98959L1.48981 0.575378L14.9248 14.0104L13.5106 15.4246Z"/>
</mask>
<path fill-rule="evenodd" clip-rule="evenodd" d="M13.5106 15.4246L0.0755936 1.98959L1.48981 0.575378L14.9248 14.0104L13.5106 15.4246Z" fill="#463D4A"/>
<path d="M0.0755936 1.98959L-1.33862 0.575378L-2.75283 1.98959L-1.33862 3.40381L0.0755936 1.98959ZM13.5106 15.4246L12.0964 16.8388L13.5106 18.253L14.9248 16.8388L13.5106 15.4246ZM1.48981 0.575378L2.90402 -0.838835L1.48981 -2.25305L0.0755936 -0.838835L1.48981 0.575378ZM14.9248 14.0104L16.339 15.4246L17.7533 14.0104L16.339 12.5962L14.9248 14.0104ZM-1.33862 3.40381L12.0964 16.8388L14.9248 14.0104L1.48981 0.575378L-1.33862 3.40381ZM0.0755936 -0.838835L-1.33862 0.575378L1.48981 3.40381L2.90402 1.98959L0.0755936 -0.838835ZM16.339 12.5962L2.90402 -0.838835L0.0755936 1.98959L13.5106 15.4246L16.339 12.5962ZM14.9248 16.8388L16.339 15.4246L13.5106 12.5962L12.0964 14.0104L14.9248 16.8388Z" fill="#463D4A" mask="url(#path-1-inside-1)"/>
<mask id="path-3-inside-2" fill="white">
<path fill-rule="evenodd" clip-rule="evenodd" d="M0.0756226 14.0104L13.5107 0.575349L14.9249 1.98956L1.48984 15.4246L0.0756226 14.0104Z"/>
</mask>
<path fill-rule="evenodd" clip-rule="evenodd" d="M0.0756226 14.0104L13.5107 0.575349L14.9249 1.98956L1.48984 15.4246L0.0756226 14.0104Z" fill="#463D4A"/>
<path d="M13.5107 0.575349L14.9249 -0.838864L13.5107 -2.25308L12.0964 -0.838864L13.5107 0.575349ZM0.0756226 14.0104L-1.33859 12.5962L-2.7528 14.0104L-1.33859 15.4246L0.0756226 14.0104ZM14.9249 1.98956L16.3391 3.40378L17.7533 1.98956L16.3391 0.57535L14.9249 1.98956ZM1.48984 15.4246L0.0756223 16.8388L1.48984 18.253L2.90405 16.8388L1.48984 15.4246ZM12.0964 -0.838864L-1.33859 12.5962L1.48984 15.4246L14.9249 1.98956L12.0964 -0.838864ZM16.3391 0.57535L14.9249 -0.838864L12.0964 1.98956L13.5107 3.40378L16.3391 0.57535ZM2.90405 16.8388L16.3391 3.40378L13.5107 0.575349L0.0756226 14.0104L2.90405 16.8388ZM-1.33859 15.4246L0.0756223 16.8388L2.90405 14.0104L1.48984 12.5962L-1.33859 15.4246Z" fill="#463D4A" mask="url(#path-3-inside-2)"/>
</svg>
