<svg width="62" height="19" viewBox="0 0 62 19" fill="none" xmlns="http://www.w3.org/2000/svg">
<path d="M10.7161 4.94687H7.25801L5.36811 10.2976L3.438 4.94687H0L3.98085 14.356H6.71517L10.7161 4.94687Z" fill="#7820A0"/>
<path d="M11.6871 4.94687V14.356H14.8839V4.94687H11.6871ZM11.3454 1.81722C11.3454 2.80659 12.23 3.65462 13.2755 3.65462C14.341 3.65462 15.1855 2.84697 15.1855 1.81722C15.1855 0.78746 14.341 0 13.2755 0C12.23 0 11.3454 0.78746 11.3454 1.81722Z" fill="#7820A0"/>
<path d="M18.0062 1.57492V4.94687H16.2972V7.30925H18.0062V14.356H21.1627V7.30925H23.133V4.94687H21.1627V1.57492H18.0062Z" fill="#7820A0"/>
<path d="M30.976 5.95643C30.413 5.14878 29.3675 4.70457 28.3824 4.70457C27.156 4.70457 26.0904 5.16897 25.1856 6.07758C24.2809 6.98619 23.8185 8.15728 23.8185 9.63124C23.8185 11.1052 24.2809 12.2763 25.1856 13.1849C26.0904 14.0935 27.156 14.5377 28.3824 14.5377C29.5284 14.5377 30.3929 14.1137 30.976 13.2859V14.356H34.1727V4.94687H30.976V5.95643ZM27.6385 8.27843C28.4226 7.49097 29.649 7.49097 30.3929 8.27843C31.177 9.02551 31.177 10.2572 30.3929 11.0446C29.649 11.7917 28.4226 11.7917 27.6385 11.0446C26.8946 10.2572 26.8946 9.02551 27.6385 8.27843Z" fill="#7820A0"/>
<path d="M39.589 14.356V0H36.3923V14.356H39.589Z" fill="#7820A0"/>
<path d="M41.5854 12.6599C41.5854 13.7301 42.4299 14.5377 43.4753 14.5377C44.5409 14.5377 45.4054 13.7301 45.4054 12.6599C45.4054 11.61 44.5409 10.8225 43.4753 10.8225C42.4299 10.8225 41.5854 11.61 41.5854 12.6599Z" fill="#7820A0"/>
<path d="M50.5943 14.356V0H47.3976V14.356H50.5943Z" fill="#7820A0"/>
<path d="M56.853 9.5101L55.0235 4.94687H51.5251L55.2044 13.1041L52.8521 19H56.2097L62 4.94687H58.6022L56.853 9.5101Z" fill="#7820A0"/>
</svg>
