<svg width="20" height="20" viewBox="0 0 20 20" fill="none" xmlns="http://www.w3.org/2000/svg">
<path d="M4.19843 2C3.52682 2 2.96918 2.55764 2.96918 3.22925V4.7417C2.76298 4.85581 2.57346 5.00143 2.42108 5.18848C2.06679 5.62298 1.9254 6.19513 2.03778 6.74487V6.74609C2.36979 8.36127 2.83133 10.6075 2.86054 10.75C2.83137 10.8922 2.37165 13.1288 2.04023 14.7441C1.92692 15.2966 2.06941 15.8712 2.42475 16.3079V16.3091C2.78102 16.7457 3.31569 17 3.87982 17H15.7829C16.3529 17 16.8934 16.743 17.2538 16.3018V16.3005C17.6138 15.8588 17.7577 15.278 17.6433 14.7197C17.3119 13.1053 16.8569 10.8916 16.8278 10.75C16.857 10.6075 17.3191 8.35789 17.6506 6.74243C17.7631 6.19408 17.6226 5.62178 17.2685 5.18726L17.2673 5.18604C17.1148 4.99914 16.9255 4.85422 16.7192 4.74048V3.22925C16.7192 2.55764 16.1615 2 15.4899 2H4.19843ZM4.21918 3.25H15.4692V4.5H4.21918V3.25ZM3.87006 5.75H15.4692V5.75244H15.8317C16.0135 5.75583 16.1849 5.83659 16.2993 5.97705C16.4169 6.12112 16.4636 6.30861 16.4262 6.49097C16.0843 8.15734 15.5778 10.6243 15.5778 10.6243L15.5522 10.75L15.5778 10.8757C15.5778 10.8757 16.0758 13.3054 16.4177 14.9712C16.4564 15.1621 16.4088 15.3593 16.2858 15.5107C16.1613 15.6632 15.9791 15.75 15.7829 15.75H3.87982C3.69021 15.75 3.51396 15.6651 3.39399 15.5181C3.2749 15.3711 3.22672 15.1802 3.26459 14.9956C3.60648 13.3293 4.11054 10.8757 4.11054 10.8757L4.13617 10.75L4.11054 10.6243C4.11054 10.6243 3.60472 8.16121 3.26215 6.49463H3.26337C3.22583 6.31099 3.27142 6.12241 3.3891 5.97827H3.39032C3.50799 5.83384 3.68374 5.75 3.87006 5.75ZM8.15351 7.625C7.37226 7.625 6.6628 7.83853 6.3078 8.05103L6.59223 9.04468C6.87598 8.9028 7.37343 8.68945 7.8703 8.68945C8.43843 8.68945 8.72235 8.9741 8.72235 9.3291C8.72235 9.82598 8.15356 10.0396 7.65668 10.0396H7.08905V11.0332H7.6579C8.29728 11.0332 8.86518 11.3183 8.86518 11.8865C8.86518 12.3127 8.5095 12.6677 7.7995 12.6677C7.23138 12.6677 6.66298 12.4544 6.3786 12.3125L6.09296 13.449C6.44796 13.6621 7.08783 13.875 7.86908 13.875C9.43158 13.875 10.3544 13.0937 10.3544 12.0281C10.3544 11.1762 9.78636 10.6783 9.07636 10.5364C9.78698 10.252 10.142 9.75607 10.142 9.1167C10.142 8.26482 9.43163 7.625 8.15351 7.625ZM11.7192 7.625V13.875H12.9692V7.625H11.7192Z" fill="#847D88"/>
</svg>
