<svg width="52" height="59" viewBox="0 0 52 59" fill="none" xmlns="http://www.w3.org/2000/svg">
<path d="M51.0495 46.429L15.537 57.524L0.247329 13.2286L36.6122 0.827493L51.0495 46.429Z" fill="#999999"/>
<path d="M41.3196 15.6846L4.66078 26.5752L0.247329 13.2286L36.6122 0.827493L41.3196 15.6846Z" fill="#424242"/>
<path d="M36.807 13.4752L7.02062 22.022L4.62646 14.7819L33.9994 5.1207L36.807 13.4752Z" fill="#1FC97F"/>
<path d="M15.2394 26.7786L9.24866 28.7596L10.7192 33.2066L16.7099 31.2256L15.2394 26.7786Z" fill="#E2E2E2"/>
<path d="M23.0418 24.1984L17.051 26.1794L18.5215 30.6264L24.5123 28.6454L23.0418 24.1984Z" fill="#E2E2E2"/>
<path d="M30.85 21.6165L24.8593 23.5975L26.3298 28.0445L32.3205 26.0634L30.85 21.6165Z" fill="#E2E2E2"/>
<path d="M38.6524 19.0363L32.6616 21.0173L34.1321 25.4643L40.1229 23.4832L38.6524 19.0363Z" fill="#461487"/>
<path d="M17.4461 33.4518L11.4553 35.4329L12.9258 39.8798L18.9166 37.8988L17.4461 33.4518Z" fill="#E2E2E2"/>
<path d="M25.2486 30.8718L19.2578 32.8528L20.7283 37.2997L26.7191 35.3187L25.2486 30.8718Z" fill="#E2E2E2"/>
<path d="M33.0567 28.2897L27.0659 30.2708L28.5364 34.7177L34.5272 32.7367L33.0567 28.2897Z" fill="#E2E2E2"/>
<path d="M40.8591 25.7097L34.8684 27.6907L36.3389 32.1376L42.3297 30.1566L40.8591 25.7097Z" fill="#FFFAF5"/>
<path d="M19.6528 40.1252L13.6621 42.1062L15.1326 46.5531L21.1234 44.5721L19.6528 40.1252Z" fill="#E2E2E2"/>
<path d="M27.4552 37.5451L21.4645 39.5261L22.935 43.973L28.9257 41.992L27.4552 37.5451Z" fill="#E2E2E2"/>
<path d="M35.2634 34.9631L29.2727 36.9441L30.7432 41.391L36.7339 39.41L35.2634 34.9631Z" fill="#E2E2E2"/>
<path d="M43.0658 32.383L37.0751 34.364L38.5456 38.8109L44.5363 36.8299L43.0658 32.383Z" fill="#FFFAF5"/>
<path d="M21.8595 46.7985L15.8688 48.7795L17.3393 53.2265L23.33 51.2455L21.8595 46.7985Z" fill="#E2E2E2"/>
<path d="M29.6619 44.2185L23.6711 46.1995L25.1416 50.6464L31.1324 48.6654L29.6619 44.2185Z" fill="#E2E2E2"/>
<path d="M37.4701 41.6364L31.4794 43.6174L32.9499 48.0644L38.9406 46.0833L37.4701 41.6364Z" fill="#E2E2E2"/>
<path d="M45.2726 39.0563L39.2819 41.0374L40.7524 45.4843L46.7431 43.5033L45.2726 39.0563Z" fill="#FFFAF5"/>
</svg>
