<svg width="28" height="28" viewBox="0 0 28 28" fill="none" xmlns="http://www.w3.org/2000/svg">
<path d="M14 0.1875C6.35083 0.1875 0.1875 6.35083 0.1875 14C0.1875 21.6492 6.35083 27.8125 14 27.8125C21.6492 27.8125 27.8125 21.6492 27.8125 14C27.8125 12.5142 27.6133 11.0325 27.082 9.65039L25.3555 11.3438C25.5671 12.1946 25.6875 13.0454 25.6875 14C25.6875 20.4829 20.4829 25.6875 14 25.6875C7.51709 25.6875 2.3125 20.4829 2.3125 14C2.3125 7.51709 7.51709 2.3125 14 2.3125C17.1875 2.3125 20.0513 3.58252 22.0684 5.59961L23.5625 4.10547C21.1179 1.66089 17.7188 0.1875 14 0.1875ZM25.9863 4.73633L14 16.7227L9.45117 12.1738L7.92383 13.7012L13.2363 19.0137L14 19.7441L14.7637 19.0137L27.5137 6.26367L25.9863 4.73633Z" fill="#4CAF50"/>
</svg>
